<svg width="85" height="30" viewBox="0 0 85 30" fill="none" xmlns="http://www.w3.org/2000/svg">
<path d="M0 0H8.33599L15.306 14.2308L22.1009 0H34.4648C37.547 0.2331 44.0967 1.74825 44.3419 7.7972C44.4608 10.7319 43.6764 11.9231 40.6992 14.5455C42.3104 15.3846 45.1357 18.8112 44.587 22.2727C43.8001 27.2378 41.0845 28.8462 35.4104 30C35.4104 30 26.1755 29.965 21.4704 30L25.043 22.5524H34.3247C35.1886 22.2844 36.8395 21.4476 36.5312 20.2448C36.146 18.7413 35.2003 18.2867 33.9044 18.2168C32.8676 18.1608 28.9425 18.1935 27.1095 18.2168L29.9815 11.9231H33.6592C34.4297 11.7832 35.9989 11.1748 36.1109 9.86014C36.251 8.21678 35.1653 7.55245 33.6592 7.55245H26.7592L16.1816 30H7.70554L10.8928 23.1818L0 0Z" fill="#2C2E7F"/>
<path d="M45.4276 0H63.9559C65.1118 0.18648 67.8087 0.881119 69.3498 2.16783C71.2762 3.77622 71.7315 4.3007 72.5371 5.66434C73.1816 6.75524 75.0472 10.8741 75.8995 12.7972H47.389C47.7743 12.1795 48.5379 10.3147 48.5098 7.7972C48.4748 4.65035 47.7043 2.44755 45.4276 0Z" fill="#2C2E7F"/>
<path d="M47.7393 17.2727C48.1596 18.3566 48.9512 21.1608 48.755 23.7063C48.5589 26.2517 46.455 28.9627 45.4276 30H84.1304L78.1061 17.2727H47.7393Z" fill="#2C2E7F"/>
</svg>
